<mxfile host="app.diagrams.net" agent="Mozilla/5.0 (Windows NT 10.0; Win64; x64) AppleWebKit/537.36 (KHTML, like Gecko) Chrome/133.0.0.0 Safari/537.36" version="26.0.16">
  <diagram name="Página-1" id="NlNHILpytretMf1j1Nck">
    <mxGraphModel dx="954" dy="598" grid="1" gridSize="10" guides="1" tooltips="1" connect="1" arrows="1" fold="1" page="1" pageScale="1" pageWidth="827" pageHeight="1169" math="0" shadow="0">
      <root>
        <mxCell id="0" />
        <mxCell id="1" parent="0" />
        <mxCell id="Qh-Ec81pc_u8u9bvh2uM-1" value="&lt;font style=&quot;font-size: 16px;&quot;&gt;Diagrama de Camada de Software&lt;/font&gt;" style="swimlane;childLayout=stackLayout;resizeParent=1;resizeParentMax=0;horizontal=1;startSize=20;horizontalStack=0;html=1;" parent="1" vertex="1">
          <mxGeometry x="170" y="120" width="480" height="380" as="geometry" />
        </mxCell>
        <mxCell id="Qh-Ec81pc_u8u9bvh2uM-2" value="&lt;font style=&quot;font-size: 15px;&quot;&gt;Interface&lt;/font&gt;" style="swimlane;startSize=20;horizontal=0;html=1;" parent="Qh-Ec81pc_u8u9bvh2uM-1" vertex="1">
          <mxGeometry y="20" width="480" height="120" as="geometry" />
        </mxCell>
        <mxCell id="Qh-Ec81pc_u8u9bvh2uM-6" value="&lt;font&gt;Botão&lt;/font&gt;" style="rounded=0;whiteSpace=wrap;html=1;" parent="Qh-Ec81pc_u8u9bvh2uM-2" vertex="1">
          <mxGeometry x="30" y="20" width="50" height="30" as="geometry" />
        </mxCell>
        <mxCell id="Qh-Ec81pc_u8u9bvh2uM-7" value="&lt;font&gt;LED RGB&lt;/font&gt;" style="rounded=0;whiteSpace=wrap;html=1;" parent="Qh-Ec81pc_u8u9bvh2uM-2" vertex="1">
          <mxGeometry x="110" y="20" width="60" height="30" as="geometry" />
        </mxCell>
        <mxCell id="Qh-Ec81pc_u8u9bvh2uM-8" value="Matriz de LED" style="rounded=0;whiteSpace=wrap;html=1;" parent="Qh-Ec81pc_u8u9bvh2uM-2" vertex="1">
          <mxGeometry x="200" y="20" width="70" height="30" as="geometry" />
        </mxCell>
        <mxCell id="Qh-Ec81pc_u8u9bvh2uM-10" value="Buzzer" style="rounded=0;whiteSpace=wrap;html=1;" parent="Qh-Ec81pc_u8u9bvh2uM-2" vertex="1">
          <mxGeometry x="310" y="20" width="50" height="30" as="geometry" />
        </mxCell>
        <mxCell id="Qh-Ec81pc_u8u9bvh2uM-11" value="Display OLED" style="rounded=0;whiteSpace=wrap;html=1;" parent="Qh-Ec81pc_u8u9bvh2uM-2" vertex="1">
          <mxGeometry x="400" y="20" width="60" height="30" as="geometry" />
        </mxCell>
        <mxCell id="Qh-Ec81pc_u8u9bvh2uM-12" value="Joystick" style="rounded=0;whiteSpace=wrap;html=1;" parent="Qh-Ec81pc_u8u9bvh2uM-2" vertex="1">
          <mxGeometry x="30" y="70" width="50" height="30" as="geometry" />
        </mxCell>
        <mxCell id="Qh-Ec81pc_u8u9bvh2uM-3" value="&lt;font style=&quot;font-size: 15px;&quot;&gt;Aplicação&lt;/font&gt;" style="swimlane;startSize=20;horizontal=0;html=1;" parent="Qh-Ec81pc_u8u9bvh2uM-1" vertex="1">
          <mxGeometry y="140" width="480" height="120" as="geometry" />
        </mxCell>
        <mxCell id="Qh-Ec81pc_u8u9bvh2uM-21" value="Comunicação com a Cloud" style="rounded=0;whiteSpace=wrap;html=1;" parent="Qh-Ec81pc_u8u9bvh2uM-3" vertex="1">
          <mxGeometry x="143.5" y="20" width="96.5" height="30" as="geometry" />
        </mxCell>
        <mxCell id="Qh-Ec81pc_u8u9bvh2uM-22" value="Leitura dos sensores" style="rounded=0;whiteSpace=wrap;html=1;" parent="Qh-Ec81pc_u8u9bvh2uM-3" vertex="1">
          <mxGeometry x="270" y="20" width="90" height="30" as="geometry" />
        </mxCell>
        <mxCell id="Qh-Ec81pc_u8u9bvh2uM-23" value="Controle de LEDS" style="rounded=0;whiteSpace=wrap;html=1;" parent="Qh-Ec81pc_u8u9bvh2uM-3" vertex="1">
          <mxGeometry x="30" y="70" width="80" height="30" as="geometry" />
        </mxCell>
        <mxCell id="Qh-Ec81pc_u8u9bvh2uM-24" value="Exibição de dados" style="rounded=0;whiteSpace=wrap;html=1;" parent="Qh-Ec81pc_u8u9bvh2uM-3" vertex="1">
          <mxGeometry x="151.75" y="70" width="80" height="30" as="geometry" />
        </mxCell>
        <mxCell id="Qh-Ec81pc_u8u9bvh2uM-26" value="Captura de imagem" style="rounded=0;whiteSpace=wrap;html=1;" parent="Qh-Ec81pc_u8u9bvh2uM-3" vertex="1">
          <mxGeometry x="390" y="20" width="80" height="30" as="geometry" />
        </mxCell>
        <mxCell id="Qh-Ec81pc_u8u9bvh2uM-27" value="Controle de Buzzers" style="rounded=0;whiteSpace=wrap;html=1;" parent="Qh-Ec81pc_u8u9bvh2uM-3" vertex="1">
          <mxGeometry x="30" y="20" width="80" height="30" as="geometry" />
        </mxCell>
        <mxCell id="Qh-Ec81pc_u8u9bvh2uM-28" value="Processamento de dados" style="rounded=0;whiteSpace=wrap;html=1;" parent="Qh-Ec81pc_u8u9bvh2uM-3" vertex="1">
          <mxGeometry x="270" y="70" width="100" height="30" as="geometry" />
        </mxCell>
        <mxCell id="Qh-Ec81pc_u8u9bvh2uM-4" value="&lt;font style=&quot;font-size: 15px;&quot;&gt;Driver&lt;/font&gt;" style="swimlane;startSize=20;horizontal=0;html=1;" parent="Qh-Ec81pc_u8u9bvh2uM-1" vertex="1">
          <mxGeometry y="260" width="480" height="120" as="geometry" />
        </mxCell>
        <mxCell id="Qh-Ec81pc_u8u9bvh2uM-29" value="Driver da Câmera OV2640" style="rounded=0;whiteSpace=wrap;html=1;" parent="Qh-Ec81pc_u8u9bvh2uM-4" vertex="1">
          <mxGeometry x="30" y="20" width="110" height="30" as="geometry" />
        </mxCell>
        <mxCell id="Qh-Ec81pc_u8u9bvh2uM-14" value="I2C" style="rounded=0;whiteSpace=wrap;html=1;" parent="Qh-Ec81pc_u8u9bvh2uM-4" vertex="1">
          <mxGeometry x="166.75" y="20" width="50" height="30" as="geometry" />
        </mxCell>
        <mxCell id="Qh-Ec81pc_u8u9bvh2uM-16" value="PWM" style="rounded=0;whiteSpace=wrap;html=1;" parent="Qh-Ec81pc_u8u9bvh2uM-4" vertex="1">
          <mxGeometry x="320" y="20" width="50" height="30" as="geometry" />
        </mxCell>
        <mxCell id="Qh-Ec81pc_u8u9bvh2uM-17" value="SPI" style="rounded=0;whiteSpace=wrap;html=1;" parent="Qh-Ec81pc_u8u9bvh2uM-4" vertex="1">
          <mxGeometry x="400" y="20" width="50" height="30" as="geometry" />
        </mxCell>
        <mxCell id="Qh-Ec81pc_u8u9bvh2uM-20" value="ADC" style="rounded=0;whiteSpace=wrap;html=1;" parent="Qh-Ec81pc_u8u9bvh2uM-4" vertex="1">
          <mxGeometry x="30" y="70" width="50" height="30" as="geometry" />
        </mxCell>
        <mxCell id="Qh-Ec81pc_u8u9bvh2uM-19" value="PIO" style="rounded=0;whiteSpace=wrap;html=1;" parent="Qh-Ec81pc_u8u9bvh2uM-4" vertex="1">
          <mxGeometry x="243.5" y="20" width="50" height="30" as="geometry" />
        </mxCell>
        <mxCell id="tcVYhGEIOElhFDWgXgIB-5" value="Driver do display OLED SSD1306" style="rounded=0;whiteSpace=wrap;html=1;" vertex="1" parent="Qh-Ec81pc_u8u9bvh2uM-4">
          <mxGeometry x="106.75" y="70" width="110" height="30" as="geometry" />
        </mxCell>
        <mxCell id="Qh-Ec81pc_u8u9bvh2uM-5" value="&lt;font style=&quot;font-size: 15px;&quot;&gt;Hardware&lt;/font&gt;" style="swimlane;startSize=20;horizontal=0;html=1;" parent="1" vertex="1">
          <mxGeometry x="170" y="500" width="480" height="120" as="geometry" />
        </mxCell>
        <mxCell id="Qh-Ec81pc_u8u9bvh2uM-18" value="Raspberry Pi Pico W" style="rounded=0;whiteSpace=wrap;html=1;" parent="Qh-Ec81pc_u8u9bvh2uM-5" vertex="1">
          <mxGeometry x="370" y="20" width="90" height="30" as="geometry" />
        </mxCell>
        <mxCell id="tcVYhGEIOElhFDWgXgIB-1" value="&lt;font&gt;Botão&lt;/font&gt;" style="rounded=0;whiteSpace=wrap;html=1;" vertex="1" parent="Qh-Ec81pc_u8u9bvh2uM-5">
          <mxGeometry x="30" y="20" width="50" height="30" as="geometry" />
        </mxCell>
        <mxCell id="tcVYhGEIOElhFDWgXgIB-2" value="&lt;font&gt;LED RGB&lt;/font&gt;" style="rounded=0;whiteSpace=wrap;html=1;" vertex="1" parent="Qh-Ec81pc_u8u9bvh2uM-5">
          <mxGeometry x="110" y="20" width="60" height="30" as="geometry" />
        </mxCell>
        <mxCell id="tcVYhGEIOElhFDWgXgIB-3" value="Matriz de LED" style="rounded=0;whiteSpace=wrap;html=1;" vertex="1" parent="Qh-Ec81pc_u8u9bvh2uM-5">
          <mxGeometry x="200" y="20" width="70" height="30" as="geometry" />
        </mxCell>
        <mxCell id="tcVYhGEIOElhFDWgXgIB-4" value="Buzzer" style="rounded=0;whiteSpace=wrap;html=1;" vertex="1" parent="Qh-Ec81pc_u8u9bvh2uM-5">
          <mxGeometry x="290" y="20" width="50" height="30" as="geometry" />
        </mxCell>
        <mxCell id="tcVYhGEIOElhFDWgXgIB-6" value="Display OLED" style="rounded=0;whiteSpace=wrap;html=1;" vertex="1" parent="Qh-Ec81pc_u8u9bvh2uM-5">
          <mxGeometry x="30" y="70" width="60" height="30" as="geometry" />
        </mxCell>
        <mxCell id="tcVYhGEIOElhFDWgXgIB-7" value="Joystick" style="rounded=0;whiteSpace=wrap;html=1;" vertex="1" parent="Qh-Ec81pc_u8u9bvh2uM-5">
          <mxGeometry x="110" y="70" width="50" height="30" as="geometry" />
        </mxCell>
      </root>
    </mxGraphModel>
  </diagram>
</mxfile>
